<mxfile host="app.diagrams.net" modified="2022-10-09T18:44:52.853Z" agent="5.0 (Macintosh; Intel Mac OS X 10_15_7) AppleWebKit/537.36 (KHTML, like Gecko) Chrome/105.0.0.0 Safari/537.36" etag="2Vyi0vIRSiUUkwVVKjul" version="20.3.7" type="github">
  <diagram id="C5RBs43oDa-KdzZeNtuy" name="Page-1">
    <mxGraphModel dx="1566" dy="972" grid="1" gridSize="10" guides="1" tooltips="1" connect="1" arrows="1" fold="1" page="1" pageScale="1" pageWidth="827" pageHeight="1169" math="0" shadow="0">
      <root>
        <mxCell id="WIyWlLk6GJQsqaUBKTNV-0" />
        <mxCell id="WIyWlLk6GJQsqaUBKTNV-1" parent="WIyWlLk6GJQsqaUBKTNV-0" />
        <mxCell id="lvAHJxmjkL-_hNQ7JcWy-36" value="Letter / Word&lt;br&gt;correct" style="rhombus;whiteSpace=wrap;html=1;rounded=0;labelBackgroundColor=#FFFFFF;labelBorderColor=default;fontSize=10;" vertex="1" parent="WIyWlLk6GJQsqaUBKTNV-1">
          <mxGeometry x="490" y="250" width="90" height="80" as="geometry" />
        </mxCell>
        <mxCell id="WIyWlLk6GJQsqaUBKTNV-2" value="" style="rounded=0;html=1;jettySize=auto;orthogonalLoop=1;fontSize=11;endArrow=block;endFill=0;endSize=8;strokeWidth=1;shadow=0;labelBackgroundColor=none;edgeStyle=orthogonalEdgeStyle;" parent="WIyWlLk6GJQsqaUBKTNV-1" edge="1">
          <mxGeometry relative="1" as="geometry">
            <mxPoint x="220" y="240" as="sourcePoint" />
            <mxPoint x="220" y="260" as="targetPoint" />
            <Array as="points">
              <mxPoint x="220" y="240" />
            </Array>
          </mxGeometry>
        </mxCell>
        <mxCell id="lvAHJxmjkL-_hNQ7JcWy-1" value="START" style="ellipse;whiteSpace=wrap;html=1;fillStyle=solid;" vertex="1" parent="WIyWlLk6GJQsqaUBKTNV-1">
          <mxGeometry x="180" width="80" height="50" as="geometry" />
        </mxCell>
        <mxCell id="lvAHJxmjkL-_hNQ7JcWy-4" value="" style="rounded=0;html=1;jettySize=auto;orthogonalLoop=1;fontSize=11;endArrow=block;endFill=0;endSize=8;strokeWidth=1;shadow=0;labelBackgroundColor=none;edgeStyle=orthogonalEdgeStyle;" edge="1" parent="WIyWlLk6GJQsqaUBKTNV-1">
          <mxGeometry relative="1" as="geometry">
            <mxPoint x="220" y="50" as="sourcePoint" />
            <mxPoint x="220" y="90" as="targetPoint" />
          </mxGeometry>
        </mxCell>
        <mxCell id="lvAHJxmjkL-_hNQ7JcWy-7" value="&#39;E&#39;&lt;br&gt;Easy" style="shape=parallelogram;perimeter=parallelogramPerimeter;whiteSpace=wrap;html=1;fixedSize=1;" vertex="1" parent="WIyWlLk6GJQsqaUBKTNV-1">
          <mxGeometry x="40" y="160" width="90" height="40" as="geometry" />
        </mxCell>
        <mxCell id="lvAHJxmjkL-_hNQ7JcWy-8" value="&#39;M&#39;&lt;br&gt;Medium" style="shape=parallelogram;perimeter=parallelogramPerimeter;whiteSpace=wrap;html=1;fixedSize=1;" vertex="1" parent="WIyWlLk6GJQsqaUBKTNV-1">
          <mxGeometry x="130" y="160" width="90" height="40" as="geometry" />
        </mxCell>
        <mxCell id="lvAHJxmjkL-_hNQ7JcWy-9" value="&#39;H&#39;&lt;br&gt;Hard" style="shape=parallelogram;perimeter=parallelogramPerimeter;whiteSpace=wrap;html=1;fixedSize=1;" vertex="1" parent="WIyWlLk6GJQsqaUBKTNV-1">
          <mxGeometry x="220" y="160" width="90" height="40" as="geometry" />
        </mxCell>
        <mxCell id="lvAHJxmjkL-_hNQ7JcWy-10" value="&lt;font style=&quot;font-size: 10px;&quot;&gt;Anything but&lt;br&gt;&#39;E&#39;,&#39;M&#39;,&#39;H&#39;&lt;/font&gt;" style="shape=parallelogram;perimeter=parallelogramPerimeter;whiteSpace=wrap;html=1;fixedSize=1;" vertex="1" parent="WIyWlLk6GJQsqaUBKTNV-1">
          <mxGeometry x="310" y="160" width="90" height="40" as="geometry" />
        </mxCell>
        <mxCell id="lvAHJxmjkL-_hNQ7JcWy-13" value="" style="rounded=0;html=1;jettySize=auto;orthogonalLoop=1;fontSize=11;endArrow=block;endFill=0;endSize=8;strokeWidth=1;shadow=0;labelBackgroundColor=none;edgeStyle=orthogonalEdgeStyle;" edge="1" parent="WIyWlLk6GJQsqaUBKTNV-1" source="lvAHJxmjkL-_hNQ7JcWy-30">
          <mxGeometry relative="1" as="geometry">
            <mxPoint x="160" y="120" as="sourcePoint" />
            <mxPoint x="100" y="160" as="targetPoint" />
            <Array as="points">
              <mxPoint x="100" y="130" />
            </Array>
          </mxGeometry>
        </mxCell>
        <mxCell id="lvAHJxmjkL-_hNQ7JcWy-14" value="" style="rounded=0;html=1;jettySize=auto;orthogonalLoop=1;fontSize=11;endArrow=block;endFill=0;endSize=8;strokeWidth=1;shadow=0;labelBackgroundColor=none;edgeStyle=orthogonalEdgeStyle;exitX=0.375;exitY=0.875;exitDx=0;exitDy=0;exitPerimeter=0;" edge="1" parent="WIyWlLk6GJQsqaUBKTNV-1" source="lvAHJxmjkL-_hNQ7JcWy-30">
          <mxGeometry relative="1" as="geometry">
            <mxPoint x="190" y="140" as="sourcePoint" />
            <mxPoint x="190" y="160" as="targetPoint" />
            <Array as="points">
              <mxPoint x="190" y="140" />
            </Array>
          </mxGeometry>
        </mxCell>
        <mxCell id="lvAHJxmjkL-_hNQ7JcWy-16" value="" style="rounded=0;html=1;jettySize=auto;orthogonalLoop=1;fontSize=11;endArrow=block;endFill=0;endSize=8;strokeWidth=1;shadow=0;labelBackgroundColor=none;edgeStyle=orthogonalEdgeStyle;exitX=0.57;exitY=0.915;exitDx=0;exitDy=0;exitPerimeter=0;" edge="1" parent="WIyWlLk6GJQsqaUBKTNV-1" source="lvAHJxmjkL-_hNQ7JcWy-30">
          <mxGeometry relative="1" as="geometry">
            <mxPoint x="264.8" y="140" as="sourcePoint" />
            <mxPoint x="264.8" y="160" as="targetPoint" />
            <Array as="points">
              <mxPoint x="226" y="140" />
              <mxPoint x="265" y="140" />
            </Array>
          </mxGeometry>
        </mxCell>
        <mxCell id="lvAHJxmjkL-_hNQ7JcWy-17" value="" style="rounded=0;html=1;jettySize=auto;orthogonalLoop=1;fontSize=11;endArrow=block;endFill=0;endSize=8;strokeWidth=1;shadow=0;labelBackgroundColor=none;edgeStyle=orthogonalEdgeStyle;exitX=0.563;exitY=-0.021;exitDx=0;exitDy=0;exitPerimeter=0;entryX=1;entryY=0.5;entryDx=0;entryDy=0;" edge="1" parent="WIyWlLk6GJQsqaUBKTNV-1" source="lvAHJxmjkL-_hNQ7JcWy-10" target="lvAHJxmjkL-_hNQ7JcWy-30">
          <mxGeometry relative="1" as="geometry">
            <mxPoint x="360" y="140" as="sourcePoint" />
            <mxPoint x="279.76" y="109.60000000000002" as="targetPoint" />
            <Array as="points">
              <mxPoint x="361" y="120" />
              <mxPoint x="360" y="120" />
              <mxPoint x="360" y="110" />
            </Array>
          </mxGeometry>
        </mxCell>
        <mxCell id="lvAHJxmjkL-_hNQ7JcWy-18" value="" style="endArrow=none;html=1;rounded=0;fontSize=10;" edge="1" parent="WIyWlLk6GJQsqaUBKTNV-1">
          <mxGeometry width="50" height="50" relative="1" as="geometry">
            <mxPoint x="220" y="240" as="sourcePoint" />
            <mxPoint x="110" y="200" as="targetPoint" />
            <Array as="points">
              <mxPoint x="170" y="230" />
            </Array>
          </mxGeometry>
        </mxCell>
        <mxCell id="lvAHJxmjkL-_hNQ7JcWy-21" value="8&lt;br&gt;&amp;nbsp;Tries" style="edgeLabel;html=1;align=center;verticalAlign=middle;resizable=0;points=[];fontSize=10;" vertex="1" connectable="0" parent="lvAHJxmjkL-_hNQ7JcWy-18">
          <mxGeometry x="0.2309" y="-2" relative="1" as="geometry">
            <mxPoint x="-11" as="offset" />
          </mxGeometry>
        </mxCell>
        <mxCell id="lvAHJxmjkL-_hNQ7JcWy-20" value="" style="endArrow=none;html=1;rounded=0;fontSize=10;" edge="1" parent="WIyWlLk6GJQsqaUBKTNV-1">
          <mxGeometry width="50" height="50" relative="1" as="geometry">
            <mxPoint x="170" y="200" as="sourcePoint" />
            <mxPoint x="220" y="240" as="targetPoint" />
            <Array as="points">
              <mxPoint x="200" y="220" />
            </Array>
          </mxGeometry>
        </mxCell>
        <mxCell id="lvAHJxmjkL-_hNQ7JcWy-22" value="6&lt;br&gt;Tries" style="edgeLabel;html=1;align=center;verticalAlign=middle;resizable=0;points=[];fontSize=10;labelBorderColor=none;" vertex="1" connectable="0" parent="lvAHJxmjkL-_hNQ7JcWy-20">
          <mxGeometry x="-0.2081" relative="1" as="geometry">
            <mxPoint as="offset" />
          </mxGeometry>
        </mxCell>
        <mxCell id="lvAHJxmjkL-_hNQ7JcWy-23" value="4&lt;br&gt;Tries" style="endArrow=none;html=1;rounded=0;fontSize=10;entryX=0.378;entryY=1.002;entryDx=0;entryDy=0;entryPerimeter=0;" edge="1" parent="WIyWlLk6GJQsqaUBKTNV-1" target="lvAHJxmjkL-_hNQ7JcWy-9">
          <mxGeometry x="0.0751" y="-2" width="50" height="50" relative="1" as="geometry">
            <mxPoint x="220" y="240" as="sourcePoint" />
            <mxPoint x="270" y="130" as="targetPoint" />
            <mxPoint as="offset" />
          </mxGeometry>
        </mxCell>
        <mxCell id="lvAHJxmjkL-_hNQ7JcWy-24" value="" style="rounded=0;html=1;jettySize=auto;orthogonalLoop=1;fontSize=11;endArrow=block;endFill=0;endSize=8;strokeWidth=1;shadow=0;labelBackgroundColor=none;edgeStyle=orthogonalEdgeStyle;entryX=0.333;entryY=0;entryDx=0;entryDy=0;entryPerimeter=0;exitX=1;exitY=1;exitDx=0;exitDy=0;" edge="1" parent="WIyWlLk6GJQsqaUBKTNV-1" source="lvAHJxmjkL-_hNQ7JcWy-30" target="lvAHJxmjkL-_hNQ7JcWy-10">
          <mxGeometry relative="1" as="geometry">
            <mxPoint x="280" y="131" as="sourcePoint" />
            <mxPoint x="300" y="159.99999999999994" as="targetPoint" />
            <Array as="points" />
          </mxGeometry>
        </mxCell>
        <mxCell id="lvAHJxmjkL-_hNQ7JcWy-29" value="Guess&lt;br&gt;word / letter" style="shape=parallelogram;perimeter=parallelogramPerimeter;whiteSpace=wrap;html=1;fixedSize=1;" vertex="1" parent="WIyWlLk6GJQsqaUBKTNV-1">
          <mxGeometry x="170" y="260" width="140" height="70" as="geometry" />
        </mxCell>
        <mxCell id="lvAHJxmjkL-_hNQ7JcWy-30" value="Select&lt;br&gt;Difficulty" style="rhombus;whiteSpace=wrap;html=1;labelBorderColor=default;strokeColor=default;fontSize=10;fillColor=default;rounded=0;" vertex="1" parent="WIyWlLk6GJQsqaUBKTNV-1">
          <mxGeometry x="180" y="70" width="80" height="80" as="geometry" />
        </mxCell>
        <mxCell id="lvAHJxmjkL-_hNQ7JcWy-33" value="" style="rounded=0;html=1;jettySize=auto;orthogonalLoop=1;fontSize=11;endArrow=block;endFill=0;endSize=8;strokeWidth=1;shadow=0;labelBackgroundColor=none;edgeStyle=orthogonalEdgeStyle;" edge="1" parent="WIyWlLk6GJQsqaUBKTNV-1" source="lvAHJxmjkL-_hNQ7JcWy-29" target="lvAHJxmjkL-_hNQ7JcWy-37">
          <mxGeometry relative="1" as="geometry">
            <mxPoint x="140" y="320" as="sourcePoint" />
            <mxPoint x="130" y="290" as="targetPoint" />
            <Array as="points">
              <mxPoint x="150" y="290" />
              <mxPoint x="150" y="290" />
            </Array>
          </mxGeometry>
        </mxCell>
        <mxCell id="lvAHJxmjkL-_hNQ7JcWy-37" value="Letter / Word&lt;br&gt;incorrect" style="rhombus;whiteSpace=wrap;html=1;rounded=0;labelBackgroundColor=#FFFFFF;labelBorderColor=default;fontSize=10;" vertex="1" parent="WIyWlLk6GJQsqaUBKTNV-1">
          <mxGeometry x="30" y="250" width="90" height="80" as="geometry" />
        </mxCell>
        <mxCell id="lvAHJxmjkL-_hNQ7JcWy-40" value="" style="rounded=0;html=1;jettySize=auto;orthogonalLoop=1;fontSize=11;endArrow=block;endFill=0;endSize=8;strokeWidth=1;shadow=0;labelBackgroundColor=none;edgeStyle=orthogonalEdgeStyle;" edge="1" parent="WIyWlLk6GJQsqaUBKTNV-1">
          <mxGeometry relative="1" as="geometry">
            <mxPoint x="75" y="330" as="sourcePoint" />
            <mxPoint x="74.66" y="350" as="targetPoint" />
            <Array as="points">
              <mxPoint x="74.66" y="330" />
              <mxPoint x="74.66" y="330" />
            </Array>
          </mxGeometry>
        </mxCell>
        <mxCell id="lvAHJxmjkL-_hNQ7JcWy-43" value="Checking if letter / word already in respective guessed lists" style="rounded=0;whiteSpace=wrap;html=1;labelBackgroundColor=none;labelBorderColor=default;fillStyle=solid;strokeColor=#000000;fontSize=10;fontColor=#000000;fillColor=none;" vertex="1" parent="WIyWlLk6GJQsqaUBKTNV-1">
          <mxGeometry x="40" y="350" width="100" height="60" as="geometry" />
        </mxCell>
        <mxCell id="lvAHJxmjkL-_hNQ7JcWy-48" value="" style="rounded=0;html=1;jettySize=auto;orthogonalLoop=1;fontSize=11;endArrow=block;endFill=0;endSize=8;strokeWidth=1;shadow=0;labelBackgroundColor=none;edgeStyle=orthogonalEdgeStyle;" edge="1" parent="WIyWlLk6GJQsqaUBKTNV-1">
          <mxGeometry relative="1" as="geometry">
            <mxPoint x="90.99999999999989" y="410" as="sourcePoint" />
            <mxPoint x="91" y="470" as="targetPoint" />
            <Array as="points" />
          </mxGeometry>
        </mxCell>
        <mxCell id="lvAHJxmjkL-_hNQ7JcWy-50" value="&lt;font style=&quot;font-size: 9px;&quot;&gt;Word / letter&amp;nbsp;&lt;br&gt;in guessed list&lt;/font&gt;" style="edgeLabel;html=1;align=center;verticalAlign=middle;resizable=0;points=[];fontSize=12;fontColor=#000000;" vertex="1" connectable="0" parent="lvAHJxmjkL-_hNQ7JcWy-48">
          <mxGeometry x="-0.2356" y="-2" relative="1" as="geometry">
            <mxPoint as="offset" />
          </mxGeometry>
        </mxCell>
        <mxCell id="lvAHJxmjkL-_hNQ7JcWy-51" value="&lt;font style=&quot;font-size: 11px;&quot;&gt;Tell user their guess has been repeated&lt;/font&gt;" style="rounded=0;whiteSpace=wrap;html=1;labelBackgroundColor=none;labelBorderColor=default;fillStyle=solid;strokeColor=#000000;fontSize=9;fontColor=#000000;fillColor=none;" vertex="1" parent="WIyWlLk6GJQsqaUBKTNV-1">
          <mxGeometry x="45" y="470" width="90" height="50" as="geometry" />
        </mxCell>
        <mxCell id="lvAHJxmjkL-_hNQ7JcWy-60" value="" style="rounded=0;html=1;jettySize=auto;orthogonalLoop=1;fontSize=11;endArrow=block;endFill=0;endSize=8;strokeWidth=1;shadow=0;labelBackgroundColor=none;edgeStyle=orthogonalEdgeStyle;" edge="1" parent="WIyWlLk6GJQsqaUBKTNV-1" target="lvAHJxmjkL-_hNQ7JcWy-29">
          <mxGeometry relative="1" as="geometry">
            <mxPoint x="45" y="494.69" as="sourcePoint" />
            <mxPoint x="160" y="270" as="targetPoint" />
            <Array as="points">
              <mxPoint x="20" y="495" />
              <mxPoint x="20" y="240" />
              <mxPoint x="140" y="240" />
              <mxPoint x="140" y="270" />
            </Array>
          </mxGeometry>
        </mxCell>
        <mxCell id="lvAHJxmjkL-_hNQ7JcWy-63" value="" style="rounded=0;html=1;jettySize=auto;orthogonalLoop=1;fontSize=11;endArrow=block;endFill=0;endSize=8;strokeWidth=1;shadow=0;labelBackgroundColor=none;edgeStyle=orthogonalEdgeStyle;exitX=1;exitY=1;exitDx=0;exitDy=0;" edge="1" parent="WIyWlLk6GJQsqaUBKTNV-1">
          <mxGeometry relative="1" as="geometry">
            <mxPoint x="140" y="380" as="sourcePoint" />
            <mxPoint x="240" y="380" as="targetPoint" />
            <Array as="points" />
          </mxGeometry>
        </mxCell>
        <mxCell id="lvAHJxmjkL-_hNQ7JcWy-64" value="&lt;font style=&quot;font-size: 8px;&quot;&gt;New incorrect&lt;br style=&quot;font-size: 8px;&quot;&gt;letter / word&lt;br style=&quot;font-size: 8px;&quot;&gt;guessed&lt;br style=&quot;font-size: 8px;&quot;&gt;&lt;/font&gt;" style="edgeLabel;html=1;align=center;verticalAlign=middle;resizable=0;points=[];fontSize=8;fontColor=#000000;" vertex="1" connectable="0" parent="lvAHJxmjkL-_hNQ7JcWy-63">
          <mxGeometry x="-0.2493" relative="1" as="geometry">
            <mxPoint as="offset" />
          </mxGeometry>
        </mxCell>
        <mxCell id="lvAHJxmjkL-_hNQ7JcWy-65" value="Add word / letter to respective already guessed list" style="rounded=0;whiteSpace=wrap;html=1;labelBackgroundColor=none;labelBorderColor=default;fillStyle=solid;strokeColor=#000000;fontSize=10;fontColor=#000000;fillColor=none;" vertex="1" parent="WIyWlLk6GJQsqaUBKTNV-1">
          <mxGeometry x="240" y="345" width="110" height="65" as="geometry" />
        </mxCell>
        <mxCell id="lvAHJxmjkL-_hNQ7JcWy-66" value="" style="rounded=0;html=1;jettySize=auto;orthogonalLoop=1;fontSize=11;endArrow=block;endFill=0;endSize=8;strokeWidth=1;shadow=0;labelBackgroundColor=none;edgeStyle=orthogonalEdgeStyle;" edge="1" parent="WIyWlLk6GJQsqaUBKTNV-1">
          <mxGeometry relative="1" as="geometry">
            <mxPoint x="294.67" y="410" as="sourcePoint" />
            <mxPoint x="300" y="440" as="targetPoint" />
            <Array as="points" />
          </mxGeometry>
        </mxCell>
        <mxCell id="lvAHJxmjkL-_hNQ7JcWy-67" value="&lt;font size=&quot;1&quot;&gt;&lt;br&gt;&lt;/font&gt;" style="edgeLabel;html=1;align=center;verticalAlign=middle;resizable=0;points=[];fontSize=12;fontColor=#000000;" vertex="1" connectable="0" parent="lvAHJxmjkL-_hNQ7JcWy-66">
          <mxGeometry x="-0.2356" y="-2" relative="1" as="geometry">
            <mxPoint as="offset" />
          </mxGeometry>
        </mxCell>
        <mxCell id="lvAHJxmjkL-_hNQ7JcWy-68" value="Check number of tries user has left" style="rounded=0;whiteSpace=wrap;html=1;labelBackgroundColor=none;labelBorderColor=default;fillStyle=solid;strokeColor=default;fontSize=10;fontColor=#000000;fillColor=none;" vertex="1" parent="WIyWlLk6GJQsqaUBKTNV-1">
          <mxGeometry x="250" y="440" width="100" height="50" as="geometry" />
        </mxCell>
        <mxCell id="lvAHJxmjkL-_hNQ7JcWy-69" value="REMOVES LAST TRY. GAME OVER" style="rounded=0;whiteSpace=wrap;html=1;labelBackgroundColor=none;labelBorderColor=default;fillStyle=solid;strokeColor=#000000;fontSize=10;fontColor=#000000;fillColor=none;" vertex="1" parent="WIyWlLk6GJQsqaUBKTNV-1">
          <mxGeometry x="190" y="550" width="100" height="50" as="geometry" />
        </mxCell>
        <mxCell id="lvAHJxmjkL-_hNQ7JcWy-82" value="" style="rounded=0;html=1;jettySize=auto;orthogonalLoop=1;fontSize=11;endArrow=block;endFill=0;endSize=8;strokeWidth=1;shadow=0;labelBackgroundColor=none;edgeStyle=orthogonalEdgeStyle;exitX=0;exitY=1;exitDx=0;exitDy=0;entryX=0.603;entryY=0.013;entryDx=0;entryDy=0;entryPerimeter=0;" edge="1" parent="WIyWlLk6GJQsqaUBKTNV-1" source="lvAHJxmjkL-_hNQ7JcWy-68" target="lvAHJxmjkL-_hNQ7JcWy-69">
          <mxGeometry relative="1" as="geometry">
            <mxPoint x="300" y="500" as="sourcePoint" />
            <mxPoint x="250" y="520" as="targetPoint" />
            <Array as="points" />
          </mxGeometry>
        </mxCell>
        <mxCell id="lvAHJxmjkL-_hNQ7JcWy-84" value="One&amp;nbsp;&lt;br&gt;try left" style="edgeLabel;html=1;align=center;verticalAlign=middle;resizable=0;points=[];fontSize=8;fontColor=#000000;" vertex="1" connectable="0" parent="lvAHJxmjkL-_hNQ7JcWy-82">
          <mxGeometry x="-0.3215" y="1" relative="1" as="geometry">
            <mxPoint as="offset" />
          </mxGeometry>
        </mxCell>
        <mxCell id="lvAHJxmjkL-_hNQ7JcWy-87" value="" style="rounded=0;html=1;jettySize=auto;orthogonalLoop=1;fontSize=11;endArrow=block;endFill=0;endSize=8;strokeWidth=1;shadow=0;labelBackgroundColor=none;edgeStyle=orthogonalEdgeStyle;exitX=0;exitY=1;exitDx=0;exitDy=0;entryX=0.603;entryY=0.013;entryDx=0;entryDy=0;entryPerimeter=0;" edge="1" parent="WIyWlLk6GJQsqaUBKTNV-1">
          <mxGeometry relative="1" as="geometry">
            <mxPoint x="350" y="489.35" as="sourcePoint" />
            <mxPoint x="350.30000000000007" y="550" as="targetPoint" />
            <Array as="points">
              <mxPoint x="350" y="500" />
              <mxPoint x="350" y="500" />
            </Array>
          </mxGeometry>
        </mxCell>
        <mxCell id="lvAHJxmjkL-_hNQ7JcWy-88" value="More than&amp;nbsp;&lt;br&gt;one try left" style="edgeLabel;html=1;align=center;verticalAlign=middle;resizable=0;points=[];fontSize=8;fontColor=#000000;" vertex="1" connectable="0" parent="lvAHJxmjkL-_hNQ7JcWy-87">
          <mxGeometry x="-0.3215" y="1" relative="1" as="geometry">
            <mxPoint as="offset" />
          </mxGeometry>
        </mxCell>
        <mxCell id="lvAHJxmjkL-_hNQ7JcWy-89" value="Removes try" style="rounded=0;whiteSpace=wrap;html=1;labelBackgroundColor=none;labelBorderColor=default;fillStyle=solid;strokeColor=#000000;fontSize=10;fontColor=#000000;fillColor=none;" vertex="1" parent="WIyWlLk6GJQsqaUBKTNV-1">
          <mxGeometry x="310" y="550" width="100" height="50" as="geometry" />
        </mxCell>
        <mxCell id="lvAHJxmjkL-_hNQ7JcWy-90" value="" style="rounded=0;html=1;jettySize=auto;orthogonalLoop=1;fontSize=11;endArrow=block;endFill=0;endSize=8;strokeWidth=1;shadow=0;labelBackgroundColor=none;edgeStyle=orthogonalEdgeStyle;" edge="1" parent="WIyWlLk6GJQsqaUBKTNV-1" source="lvAHJxmjkL-_hNQ7JcWy-29" target="lvAHJxmjkL-_hNQ7JcWy-36">
          <mxGeometry relative="1" as="geometry">
            <mxPoint x="330" y="290" as="sourcePoint" />
            <mxPoint x="400" y="280" as="targetPoint" />
            <Array as="points">
              <mxPoint x="340" y="290" />
              <mxPoint x="340" y="290" />
            </Array>
          </mxGeometry>
        </mxCell>
        <mxCell id="lvAHJxmjkL-_hNQ7JcWy-95" value="" style="rounded=0;html=1;jettySize=auto;orthogonalLoop=1;fontSize=11;endArrow=block;endFill=0;endSize=8;strokeWidth=1;shadow=0;labelBackgroundColor=none;edgeStyle=orthogonalEdgeStyle;exitX=0;exitY=1;exitDx=0;exitDy=0;" edge="1" parent="WIyWlLk6GJQsqaUBKTNV-1">
          <mxGeometry relative="1" as="geometry">
            <mxPoint x="534.61" y="359.96" as="sourcePoint" />
            <mxPoint x="535" y="370" as="targetPoint" />
            <Array as="points">
              <mxPoint x="534.61" y="319.96" />
              <mxPoint x="534.61" y="319.96" />
            </Array>
          </mxGeometry>
        </mxCell>
        <mxCell id="lvAHJxmjkL-_hNQ7JcWy-98" value="" style="rounded=0;html=1;jettySize=auto;orthogonalLoop=1;fontSize=11;endArrow=block;endFill=0;endSize=8;strokeWidth=1;shadow=0;labelBackgroundColor=none;edgeStyle=orthogonalEdgeStyle;entryX=1;entryY=1;entryDx=0;entryDy=0;exitX=1;exitY=0.5;exitDx=0;exitDy=0;" edge="1" parent="WIyWlLk6GJQsqaUBKTNV-1" source="lvAHJxmjkL-_hNQ7JcWy-89" target="lvAHJxmjkL-_hNQ7JcWy-29">
          <mxGeometry relative="1" as="geometry">
            <mxPoint x="420" y="570" as="sourcePoint" />
            <mxPoint x="290" y="290" as="targetPoint" />
            <Array as="points">
              <mxPoint x="440" y="575" />
              <mxPoint x="440" y="310" />
            </Array>
          </mxGeometry>
        </mxCell>
        <mxCell id="lvAHJxmjkL-_hNQ7JcWy-99" value="&lt;font style=&quot;font-size: 11px;&quot;&gt;Correctly guessed word / letter is added in the space(s)&lt;/font&gt;" style="rounded=0;whiteSpace=wrap;html=1;labelBackgroundColor=none;labelBorderColor=default;fillStyle=solid;strokeColor=#000000;fontSize=10;fontColor=#000000;fillColor=none;" vertex="1" parent="WIyWlLk6GJQsqaUBKTNV-1">
          <mxGeometry x="470" y="370" width="130" height="70" as="geometry" />
        </mxCell>
        <mxCell id="lvAHJxmjkL-_hNQ7JcWy-100" value="" style="rounded=0;html=1;jettySize=auto;orthogonalLoop=1;fontSize=11;endArrow=block;endFill=0;endSize=8;strokeWidth=1;shadow=0;labelBackgroundColor=none;edgeStyle=orthogonalEdgeStyle;" edge="1" parent="WIyWlLk6GJQsqaUBKTNV-1">
          <mxGeometry relative="1" as="geometry">
            <mxPoint x="534.57" y="440" as="sourcePoint" />
            <mxPoint x="534.5699999999999" y="480.00000000000006" as="targetPoint" />
            <Array as="points">
              <mxPoint x="534.57" y="450" />
              <mxPoint x="534.57" y="450" />
            </Array>
          </mxGeometry>
        </mxCell>
        <mxCell id="lvAHJxmjkL-_hNQ7JcWy-102" value="&lt;span style=&quot;font-size: 12px;&quot;&gt;Check if all spaces are filled with letters&lt;/span&gt;" style="rounded=0;whiteSpace=wrap;html=1;labelBackgroundColor=none;labelBorderColor=default;fillStyle=solid;strokeColor=#000000;fontSize=10;fontColor=#000000;fillColor=none;" vertex="1" parent="WIyWlLk6GJQsqaUBKTNV-1">
          <mxGeometry x="470" y="480" width="130" height="70" as="geometry" />
        </mxCell>
        <mxCell id="lvAHJxmjkL-_hNQ7JcWy-103" value="" style="rounded=0;html=1;jettySize=auto;orthogonalLoop=1;fontSize=11;endArrow=block;endFill=0;endSize=8;strokeWidth=1;shadow=0;labelBackgroundColor=none;edgeStyle=orthogonalEdgeStyle;" edge="1" parent="WIyWlLk6GJQsqaUBKTNV-1">
          <mxGeometry relative="1" as="geometry">
            <mxPoint x="534.61" y="600" as="sourcePoint" />
            <mxPoint x="535" y="610" as="targetPoint" />
            <Array as="points">
              <mxPoint x="534.61" y="550" />
              <mxPoint x="534.61" y="550" />
            </Array>
          </mxGeometry>
        </mxCell>
        <mxCell id="lvAHJxmjkL-_hNQ7JcWy-104" value="Yes, they are all filled" style="edgeLabel;html=1;align=center;verticalAlign=middle;resizable=0;points=[];fontSize=10;fontColor=#000000;" vertex="1" connectable="0" parent="lvAHJxmjkL-_hNQ7JcWy-103">
          <mxGeometry x="-0.5119" relative="1" as="geometry">
            <mxPoint as="offset" />
          </mxGeometry>
        </mxCell>
        <mxCell id="lvAHJxmjkL-_hNQ7JcWy-105" value="&lt;span style=&quot;font-size: 12px;&quot;&gt;WORD COMPLETE GAME WON&amp;nbsp;&lt;/span&gt;" style="rounded=0;whiteSpace=wrap;html=1;labelBackgroundColor=none;labelBorderColor=default;fillStyle=solid;strokeColor=#000000;fontSize=10;fontColor=#000000;fillColor=none;" vertex="1" parent="WIyWlLk6GJQsqaUBKTNV-1">
          <mxGeometry x="470" y="610" width="130" height="70" as="geometry" />
        </mxCell>
        <mxCell id="lvAHJxmjkL-_hNQ7JcWy-108" value="" style="rounded=0;html=1;jettySize=auto;orthogonalLoop=1;fontSize=11;endArrow=block;endFill=0;endSize=8;strokeWidth=1;shadow=0;labelBackgroundColor=none;edgeStyle=orthogonalEdgeStyle;entryX=0.017;entryY=0.395;entryDx=0;entryDy=0;entryPerimeter=0;" edge="1" parent="WIyWlLk6GJQsqaUBKTNV-1" target="lvAHJxmjkL-_hNQ7JcWy-112">
          <mxGeometry relative="1" as="geometry">
            <mxPoint x="240" y="600" as="sourcePoint" />
            <mxPoint x="360" y="760" as="targetPoint" />
            <Array as="points">
              <mxPoint x="240" y="760" />
            </Array>
          </mxGeometry>
        </mxCell>
        <mxCell id="lvAHJxmjkL-_hNQ7JcWy-110" value="" style="rounded=0;html=1;jettySize=auto;orthogonalLoop=1;fontSize=11;endArrow=block;endFill=0;endSize=8;strokeWidth=1;shadow=0;labelBackgroundColor=none;edgeStyle=orthogonalEdgeStyle;exitX=0.5;exitY=1;exitDx=0;exitDy=0;" edge="1" parent="WIyWlLk6GJQsqaUBKTNV-1" source="lvAHJxmjkL-_hNQ7JcWy-105" target="lvAHJxmjkL-_hNQ7JcWy-112">
          <mxGeometry relative="1" as="geometry">
            <mxPoint x="534.58" y="760" as="sourcePoint" />
            <mxPoint x="460" y="760" as="targetPoint" />
            <Array as="points">
              <mxPoint x="535" y="760" />
            </Array>
          </mxGeometry>
        </mxCell>
        <mxCell id="lvAHJxmjkL-_hNQ7JcWy-112" value="FINISH" style="ellipse;whiteSpace=wrap;html=1;fillStyle=solid;" vertex="1" parent="WIyWlLk6GJQsqaUBKTNV-1">
          <mxGeometry x="374" y="740" width="80" height="50" as="geometry" />
        </mxCell>
        <mxCell id="lvAHJxmjkL-_hNQ7JcWy-119" value="" style="rounded=0;html=1;jettySize=auto;orthogonalLoop=1;fontSize=11;endArrow=block;endFill=0;endSize=8;strokeWidth=1;shadow=0;labelBackgroundColor=none;edgeStyle=orthogonalEdgeStyle;exitX=1;exitY=0.5;exitDx=0;exitDy=0;" edge="1" parent="WIyWlLk6GJQsqaUBKTNV-1" source="lvAHJxmjkL-_hNQ7JcWy-102" target="lvAHJxmjkL-_hNQ7JcWy-29">
          <mxGeometry relative="1" as="geometry">
            <mxPoint x="640" y="520" as="sourcePoint" />
            <mxPoint x="330" y="250" as="targetPoint" />
            <Array as="points">
              <mxPoint x="600" y="520" />
              <mxPoint x="780" y="520" />
              <mxPoint x="780" y="220" />
              <mxPoint x="420" y="220" />
              <mxPoint x="420" y="270" />
            </Array>
          </mxGeometry>
        </mxCell>
        <mxCell id="lvAHJxmjkL-_hNQ7JcWy-121" value="No, still spaces left" style="edgeLabel;html=1;align=center;verticalAlign=middle;resizable=0;points=[];fontSize=10;fontColor=#000000;" vertex="1" connectable="0" parent="lvAHJxmjkL-_hNQ7JcWy-119">
          <mxGeometry x="-0.1362" y="1" relative="1" as="geometry">
            <mxPoint x="-109" y="250" as="offset" />
          </mxGeometry>
        </mxCell>
      </root>
    </mxGraphModel>
  </diagram>
</mxfile>
